<svg width="24" height="25" viewBox="0 0 24 25" fill="none" xmlns="http://www.w3.org/2000/svg">
<g id="airplane">
<path id="Vector 16" d="M10.5 5V9.66745C10.5 9.87433 10.3934 10.0666 10.218 10.1762L2.782 14.8237C2.60657 14.9334 2.5 15.1257 2.5 15.3325V16.2315C2.5 16.6219 2.86683 16.9083 3.24552 16.8136L9.75448 15.1864C10.1332 15.0917 10.5 15.3781 10.5 15.7685V18.7277C10.5 18.9008 10.4253 19.0654 10.2951 19.1793L8.13481 21.0695C7.6765 21.4706 8.03808 22.2204 8.63724 22.1114L11.8927 21.5195C11.9636 21.5066 12.0364 21.5066 12.1073 21.5195L15.3628 22.1114C15.9619 22.2204 16.3235 21.4706 15.8652 21.0695L13.7049 19.1793C13.5747 19.0654 13.5 18.9008 13.5 18.7277V15.7685C13.5 15.3781 13.8668 15.0917 14.2455 15.1864L20.7545 16.8136C21.1332 16.9083 21.5 16.6219 21.5 16.2315V15.3325C21.5 15.1257 21.3934 14.9334 21.218 14.8237L13.782 10.1763C13.6066 10.0666 13.5 9.87433 13.5 9.66745V5C13.5 4.17157 12.8284 3.5 12 3.5C11.1716 3.5 10.5 4.17157 10.5 5Z" stroke="#E51D33" stroke-width="1.5" stroke-linecap="round" stroke-linejoin="round"/>
</g>
</svg>
