<svg width="24" height="25" viewBox="0 0 24 25" fill="none" xmlns="http://www.w3.org/2000/svg">
<g id="city">
<path id="Vector" d="M7 9.51L7.01 9.49889" stroke="#E51D33" stroke-width="1.5" stroke-linecap="round" stroke-linejoin="round"/>
<path id="Vector_2" d="M11 9.51L11.01 9.49889" stroke="#E51D33" stroke-width="1.5" stroke-linecap="round" stroke-linejoin="round"/>
<path id="Vector_3" d="M7 13.51L7.01 13.4989" stroke="#E51D33" stroke-width="1.5" stroke-linecap="round" stroke-linejoin="round"/>
<path id="Vector_4" d="M11 13.51L11.01 13.4989" stroke="#E51D33" stroke-width="1.5" stroke-linecap="round" stroke-linejoin="round"/>
<path id="Vector_5" d="M7 17.51L7.01 17.4989" stroke="#E51D33" stroke-width="1.5" stroke-linecap="round" stroke-linejoin="round"/>
<path id="Vector_6" d="M11 17.51L11.01 17.4989" stroke="#E51D33" stroke-width="1.5" stroke-linecap="round" stroke-linejoin="round"/>
<path id="Vector_7" d="M15 21.5H3.6C3.26863 21.5 3 21.2314 3 20.9V6.1C3 5.76863 3.26863 5.5 3.6 5.5H9V4.1C9 3.76863 9.26863 3.5 9.6 3.5H14.4C14.7314 3.5 15 3.76863 15 4.1V9.5M15 21.5H20.4C20.7314 21.5 21 21.2314 21 20.9V10.1C21 9.76863 20.7314 9.5 20.4 9.5H15M15 21.5V17.5M15 9.5V13.5M15 13.5H17M15 13.5V17.5M15 17.5H17" stroke="#E51D33" stroke-width="1.5" stroke-linecap="round" stroke-linejoin="round"/>
</g>
</svg>
