<svg width="49" height="48" viewBox="0 0 49 48" fill="none" xmlns="http://www.w3.org/2000/svg">
<path d="M22.7983 14.9707L20.4504 12.6217C19.9364 12.1076 19.3262 11.6997 18.6545 11.4215C17.9829 11.1432 17.263 11 16.536 11C15.809 11 15.0892 11.1432 14.4175 11.4215C13.7459 11.6997 13.1357 12.1076 12.6217 12.6217C12.1076 13.1357 11.6997 13.7459 11.4215 14.4175C11.1432 15.0892 11 15.809 11 16.536C11 17.263 11.1432 17.9829 11.4215 18.6545C11.6997 19.3262 12.1076 19.9364 12.6217 20.4504L16.536 24.3636L22.7983 30.6259" stroke="#EAD2C4" stroke-width="1.67045" stroke-miterlimit="10"/>
<path d="M25.9287 33.7563L28.2778 36.1053C29.3158 37.1433 30.7236 37.7265 32.1916 37.7265C33.6595 37.7265 35.0674 37.1433 36.1054 36.1053C37.1434 35.0673 37.7265 33.6595 37.7265 32.1915C37.7265 30.7236 37.1434 29.3157 36.1054 28.2777L32.191 24.3634L25.9287 18.1011" stroke="#EAD2C4" stroke-width="1.67045" stroke-miterlimit="10"/>
<path d="M14.9712 25.9287L12.6221 28.2778C11.5841 29.3158 11.001 30.7236 11.001 32.1916C11.001 33.6595 11.5841 35.0674 12.6221 36.1054C13.1361 36.6195 13.7463 37.0273 14.418 37.3056C15.0896 37.5838 15.8095 37.727 16.5365 37.727C17.2634 37.727 17.9833 37.5838 18.6549 37.3056C19.3266 37.0273 19.9368 36.6195 20.4508 36.1054L24.3641 32.191L30.6264 25.9287" stroke="#EAD2C4" stroke-width="1.67045" stroke-miterlimit="10"/>
<path d="M33.7563 22.7983L36.1053 20.4503C36.6195 19.9363 37.0273 19.3261 37.3055 18.6545C37.5838 17.9828 37.727 17.263 37.727 16.536C37.727 15.809 37.5838 15.0891 37.3055 14.4175C37.0273 13.7458 36.6195 13.1356 36.1053 12.6216C35.0673 11.5836 33.6595 11.0005 32.1915 11.0005C30.7236 11.0005 29.3157 11.5836 28.2777 12.6216L24.3634 16.536L18.1011 22.7983" stroke="#EAD2C4" stroke-width="1.67045" stroke-miterlimit="10"/>
</svg>
