<svg width="10" height="16" viewBox="0 0 10 16" fill="none" xmlns="http://www.w3.org/2000/svg">
<path d="M7.0408 6.44813C7.54286 6.02549 7.90284 5.45871 8.07194 4.8246C8.24105 4.19049 8.21109 3.51972 7.98615 2.9032C7.7612 2.28669 7.35214 1.75424 6.81441 1.37804C6.27667 1.00183 5.63627 0.800049 4.98 0.800049C4.32373 0.800049 3.68333 1.00183 3.14559 1.37804C2.60786 1.75424 2.1988 2.28669 1.97385 2.9032C1.74891 3.51972 1.71895 4.19049 1.88806 4.8246C2.05716 5.45871 2.41714 6.02549 2.9192 6.44813C2.19068 6.82555 1.5798 7.39579 1.15319 8.09665C0.726582 8.7975 0.500637 9.60205 0.5 10.4225V14.2625C0.5 14.4323 0.567429 14.5951 0.687452 14.7151C0.807475 14.8351 0.970261 14.9025 1.14 14.9025H8.82C8.98974 14.9025 9.15253 14.8351 9.27255 14.7151C9.39257 14.5951 9.46 14.4323 9.46 14.2625V10.4225C9.45936 9.60205 9.23342 8.7975 8.80681 8.09665C8.3802 7.39579 7.76932 6.82555 7.0408 6.44813ZM3.06 4.02253C3.06 3.64279 3.17261 3.27158 3.38358 2.95584C3.59455 2.64009 3.89441 2.394 4.24525 2.24868C4.59608 2.10336 4.98213 2.06534 5.35457 2.13942C5.72702 2.21351 6.06913 2.39637 6.33765 2.66489C6.60616 2.9334 6.78902 3.27551 6.86311 3.64796C6.93719 4.0204 6.89917 4.40645 6.75385 4.75728C6.60853 5.10812 6.36244 5.40798 6.04669 5.61895C5.73095 5.82992 5.35974 5.94253 4.98 5.94253C4.47078 5.94253 3.98242 5.74025 3.62235 5.38018C3.26228 5.02011 3.06 4.53175 3.06 4.02253ZM8.18 13.6225H1.78V10.4225C1.78 9.57384 2.11714 8.75991 2.71726 8.15979C3.31737 7.55967 4.13131 7.22253 4.98 7.22253C5.82869 7.22253 6.64263 7.55967 7.24274 8.15979C7.84286 8.75991 8.18 9.57384 8.18 10.4225V13.6225Z" fill="#EAD2C4"/>
</svg>
