<svg width="10" height="16" viewBox="0 0 10 16" fill="none" xmlns="http://www.w3.org/2000/svg">
<path d="M7.14078 8.84803C7.64284 8.4254 8.00282 7.85861 8.17192 7.2245C8.34102 6.59039 8.31107 5.91962 8.08612 5.30311C7.86118 4.68659 7.45212 4.15415 6.91438 3.77794C6.37665 3.40173 5.73625 3.19995 5.07998 3.19995C4.42371 3.19995 3.7833 3.40173 3.24557 3.77794C2.70783 4.15415 2.29877 4.68659 2.07383 5.30311C1.84888 5.91962 1.81893 6.59039 1.98803 7.2245C2.15713 7.85861 2.51711 8.4254 3.01918 8.84803C2.29065 9.22545 1.67977 9.79569 1.25316 10.4965C0.826558 11.1974 0.600612 12.002 0.599976 12.8224V14.2624C0.599976 14.4322 0.667404 14.595 0.787427 14.715C0.907451 14.835 1.07024 14.9024 1.23998 14.9024H8.91998C9.08971 14.9024 9.2525 14.835 9.37252 14.715C9.49255 14.595 9.55998 14.4322 9.55998 14.2624V12.8224C9.55934 12.002 9.33339 11.1974 8.90679 10.4965C8.48018 9.79569 7.8693 9.22545 7.14078 8.84803ZM3.15998 6.42243C3.15998 6.04269 3.27258 5.67148 3.48355 5.35574C3.69453 5.04 3.99439 4.7939 4.34522 4.64858C4.69606 4.50326 5.08211 4.46524 5.45455 4.53932C5.82699 4.61341 6.1691 4.79627 6.43762 5.06479C6.70614 5.3333 6.889 5.67542 6.96308 6.04786C7.03717 6.4203 6.99914 6.80635 6.85382 7.15719C6.7085 7.50802 6.46241 7.80788 6.14667 8.01885C5.83093 8.22983 5.45972 8.34243 5.07998 8.34243C4.57076 8.34243 4.0824 8.14015 3.72233 7.78008C3.36226 7.42001 3.15998 6.93165 3.15998 6.42243ZM8.27998 13.6224H1.87998V12.8224C1.87998 11.9737 2.21712 11.1598 2.81723 10.5597C3.41735 9.95957 4.23128 9.62243 5.07998 9.62243C5.92867 9.62243 6.7426 9.95957 7.34272 10.5597C7.94283 11.1598 8.27998 11.9737 8.27998 12.8224V13.6224Z" fill="#EAD2C4"/>
</svg>
