<svg width="10" height="16" viewBox="0 0 10 16" fill="none" xmlns="http://www.w3.org/2000/svg">
<path fill-rule="evenodd" clip-rule="evenodd" d="M4.34 2.80005C4.0749 2.80005 3.86 3.01495 3.86 3.28005C3.86 3.54515 4.0749 3.76005 4.34 3.76005H4.52637L4.97074 4.08014C4.70991 4.08508 4.5 4.29805 4.5 4.56005C4.5 4.57216 4.50045 4.58417 4.50133 4.59605C4.01581 4.66951 3.55146 4.85409 3.14559 5.13804C2.60786 5.51425 2.1988 6.04669 1.97385 6.66321C1.74891 7.27973 1.71895 7.9505 1.88806 8.58461C2.05716 9.21872 2.41714 9.7855 2.9192 10.2081C2.19068 10.5856 1.5798 11.1558 1.15319 11.8567C0.726582 12.5575 0.500637 13.3621 0.5 14.1825C0.5 14.3523 0.567429 14.5151 0.687452 14.6351C0.807475 14.7551 0.970261 14.8225 1.14 14.8225H8.82C8.98974 14.8225 9.15253 14.7551 9.27255 14.6351C9.39257 14.5151 9.46 14.3523 9.46 14.1825C9.45936 13.3621 9.23342 12.5575 8.80681 11.8567C8.3802 11.1558 7.76932 10.5856 7.0408 10.2081C7.54286 9.7855 7.90284 9.21872 8.07194 8.58461C8.24105 7.9505 8.21109 7.27973 7.98615 6.66321C7.7612 6.04669 7.35214 5.51425 6.81441 5.13804C6.51262 4.9269 6.1785 4.77071 5.82738 4.67429C5.85971 4.63866 5.89063 4.59945 5.91938 4.55631C6.03762 4.37895 6.1 4.16404 6.1 3.92005C6.1 3.50761 5.9174 3.2035 5.66047 3.01851C5.42801 2.85114 5.16348 2.80005 4.98 2.80005H4.34ZM4.97182 4.08012L4.97079 4.08018L4.97074 4.08014C4.9711 4.08013 4.97146 4.08013 4.97182 4.08012ZM4.97182 4.08012L4.9733 4.08002C4.97804 4.07968 4.98794 4.07877 5.00109 4.07658C5.02965 4.07182 5.0604 4.06319 5.08534 4.05073C5.10839 4.0392 5.11685 4.02944 5.12062 4.02379L5.12071 4.02366C5.1229 4.02039 5.14 3.99491 5.14 3.92005C5.14 3.86058 5.12814 3.83327 5.12342 3.82411C5.1185 3.81457 5.1118 3.80642 5.09953 3.79759C5.08552 3.7875 5.06471 3.77717 5.03813 3.76958C5.01089 3.7618 4.9886 3.76005 4.98 3.76005H4.52704L3.86 3.28005L4.52637 3.76005H4.52704L4.97182 4.08012ZM3.38358 6.71584C3.17261 7.03158 3.06 7.4028 3.06 7.78254C3.06 8.29175 3.26228 8.78012 3.62235 9.14019C3.98242 9.50026 4.47078 9.70254 4.98 9.70254C5.35974 9.70254 5.73095 9.58994 6.04669 9.37896C6.36244 9.16799 6.60853 8.86813 6.75385 8.51729C6.89917 8.16646 6.93719 7.78041 6.86311 7.40796C6.78902 7.03552 6.60616 6.69341 6.33765 6.42489C6.06913 6.15637 5.72702 5.97351 5.35457 5.89943C4.98213 5.82534 4.59608 5.86337 4.24525 6.00869C3.89441 6.15401 3.59455 6.4001 3.38358 6.71584ZM8.11536 13.5425C7.99079 12.9323 7.68971 12.3668 7.24274 11.9198C6.64262 11.3197 5.82869 10.9825 4.98 10.9825C4.13131 10.9825 3.31737 11.3197 2.71726 11.9198C2.27029 12.3668 1.96921 12.9323 1.84464 13.5425H8.11536Z" fill="#EAD2C4"/>
</svg>
