<svg width="16" height="16" viewBox="0 0 16 16" fill="none" xmlns="http://www.w3.org/2000/svg">
<path d="M12 10V12" stroke="#9C9390" stroke-width="1.5" stroke-linecap="round" stroke-linejoin="round"/>
<path d="M11.9997 7.33337C11.9997 6.66671 11.333 6.00004 9.99967 6.00004V6.00004C8.52692 6.00004 7.33301 4.80613 7.33301 3.33337V1.33337" stroke="#9C9390" stroke-width="1.5" stroke-linecap="round" stroke-linejoin="round"/>
<path d="M14.6667 7.33337C14.6667 3.33337 12 3.33337 12 3.33337C12 3.33337 14.6667 4.00004 14.6667 1.33337" stroke="#9C9390" stroke-width="1.5" stroke-linecap="round" stroke-linejoin="round"/>
<path d="M14.667 10V12" stroke="#9C9390" stroke-width="1.5" stroke-linecap="round" stroke-linejoin="round"/>
<path d="M1.93301 12H11.9997L9.99967 10H1.93301C1.60164 10 1.33301 10.2686 1.33301 10.6V11.4C1.33301 11.7314 1.60164 12 1.93301 12Z" stroke="#9C9390" stroke-width="1.5"/>
<path d="M2 2L14 14" stroke="#9C9390" stroke-width="1.5" stroke-linecap="round" stroke-linejoin="round"/>
</svg>
